<?xml version="1.0" encoding="UTF-8"?>
<!DOCTYPE svg PUBLIC "-//W3C//DTD SVG 1.1//EN" "http://www.w3.org/Graphics/SVG/1.1/DTD/svg11.dtd">
<!-- Creator: CorelDRAW 2020 (64-Bit) -->
<svg xmlns="http://www.w3.org/2000/svg" xml:space="preserve" width="119.533mm" height="68.259mm" version="1.1" style="shape-rendering:geometricPrecision; text-rendering:geometricPrecision; image-rendering:optimizeQuality; fill-rule:evenodd; clip-rule:evenodd"
viewBox="0 0 11953.3 6825.9"
 xmlns:xlink="http://www.w3.org/1999/xlink"
 xmlns:xodm="http://www.corel.com/coreldraw/odm/2003">
 <defs>
  <style type="text/css">
   <![CDATA[
    .fil3 {fill:#3F3675;fill-rule:nonzero}
    .fil0 {fill:#E63B24;fill-rule:nonzero}
    .fil1 {fill:#E64225;fill-rule:nonzero}
    .fil2 {fill:#F7A80A;fill-rule:nonzero}
   ]]>
  </style>
 </defs>
 <g id="Слой_x0020_1">
  <metadata id="CorelCorpID_0Corel-Layer"/>
  <path class="fil0" d="M3623.35 3712.32c0,0 968.85,-136.04 1712.62,850.1l388.06 0c0,0 -576.16,-1139.16 -2100.68,-850.1z"/>
  <path class="fil1" d="M3292.48 3711.98c0,0 994.68,-885.78 2363.1,-652.66 33.33,-129.76 46.91,-308.06 46.91,-308.06 0,0 -1561.43,-338.37 -2410.01,960.72z"/>
  <path class="fil1" d="M5211.11 2073.36c0,0 907.17,-738.53 2098.76,-480.8 34.29,-112.55 53.14,-268.47 53.14,-268.47 0,0 -1356.86,-357.57 -2151.9,749.27z"/>
  <path class="fil1" d="M4326.65 1874.19c0,0 -72.75,-997.18 691.6,-1705.44 -62.03,-79.16 -161.99,-168.75 -161.99,-168.75 0,0 -915.24,775.08 -529.61,1874.19z"/>
  <path class="fil1" d="M2570.51 3492.02c0,0 -513.34,-741.51 -1448.86,-751.26 -11.91,-356.43 96.31,-432.99 96.31,-432.99 0,0 1081.11,157.05 1352.55,1184.25z"/>
  <path class="fil0" d="M2242.22 3591.07c0,0 -952.33,-126.43 -1630.12,604.16 -289.53,-245.93 -272.39,-386.1 -272.39,-386.1 0,0 898.26,-739.84 1902.51,-218.06z"/>
  <path class="fil1" d="M3143.86 2684.17c0,0 -0.42,-960.68 -814.12,-1536.07 205.54,-319.45 346.74,-320.99 346.74,-320.99 0,0 851.95,792.68 467.38,1857.06z"/>
  <path class="fil1" d="M6810.76 3407.44c0,0 472.08,81.89 715.11,519.24l232.5 -98.68c0,0 -344.32,-527.58 -947.61,-420.56z"/>
  <path class="fil2" d="M7663.92 3052.1c13.44,-50.09 82.89,-114.86 169.98,-174.16 -3.39,-90.7 1.11,-166.47 19.71,-193.35 48.8,33.71 93.93,68.49 135.39,103.04 89.62,-44.28 176.14,-73.69 227.41,-71.23 8.87,48.6 -18.07,134.96 -59.98,227.8 103.3,108.2 158.07,189.56 158.07,189.56 -82.02,19.24 -177.33,23.37 -269.57,17.92 -58.85,94.53 -117.01,167.95 -145.79,176.86 -11.98,-21.83 -28.64,-103.22 -42.25,-201.51 -95.89,-19.9 -169.96,-48.11 -192.97,-74.93zm-4797.63 749.5c0,0 -663.32,98.71 -1298,584.68 -69.02,-64.28 -130.38,-138.29 -183.9,-219.68 365.47,-250.08 858.14,-438.34 1481.9,-365zm-1715.22 976.08c-107.73,124.05 -209.29,263.22 -300.27,419.6 -120.97,-57.58 -266.52,-161.41 -266.52,-161.41 0,0 136.06,-259.68 412.56,-542.34 40.13,99.54 93.96,196.58 154.23,284.15zm-1098.54 -644.92c31.86,-12.84 93.8,-1.92 159.92,20.54 46.66,-37.97 88.55,-65.76 110.17,-66.64 1.61,39.25 1.22,76.98 -0.56,112.71 59.18,29.77 109.23,63.82 128.33,91.94 -22.16,24.07 -78.6,44.21 -144.45,59.06 -16.05,97.8 -37.27,159.19 -37.27,159.19 -42.86,-35.72 -83.1,-84.51 -116.95,-135.48 -73.49,6.52 -135.54,5.02 -151.72,-6.64 6.75,-15.06 43.21,-56.32 89.83,-102.68 -27.69,-58.69 -42.3,-109.12 -37.3,-132zm73.7 -2120.39c59.24,-42.96 192.93,-52.22 341.11,-39.8 76.9,-102.44 149.19,-181.48 193.47,-194.41 23.52,80.33 42.07,158.56 56.8,233.29 137.6,31.12 258.56,75.79 312.57,124.06 -33.48,61.16 -139.77,131.86 -268.23,196.38 17.05,210.41 4.77,348.26 4.77,348.26 -107.01,-51.81 -215.15,-132 -311.41,-219.96 -148.52,51.29 -277.54,80.08 -317,64.25 6.27,-34.57 60.37,-138.59 132.82,-258.42 -87.41,-107.05 -143.53,-203.81 -144.9,-253.65zm2981.46 1473.65c0,0 -505.7,-1563.9 -2107.84,-2170.18 45.52,-158.93 142.39,-357.18 142.39,-357.18 0,0 1873.32,614.78 1965.45,2527.36zm-67.28 -1173.01c35.68,-3.76 94.8,25.03 154.77,66.59 57.77,-24.74 107.85,-40.63 129.84,-35.29 -9.67,39.89 -20.92,77.68 -32.96,113.08 50.9,46.91 91.4,95.5 102.55,129.26 -29.2,17.8 -91.72,21.84 -162.12,17.84 -44.28,93.64 -83.24,149.23 -83.24,149.23 -32.81,-48.22 -59.16,-108.8 -78.56,-169.74 -75.71,-14.55 -137.61,-33.9 -150.52,-50.28 11.14,-13.18 59.64,-44.16 119.74,-77.37 -10.96,-66.91 -11.14,-121.77 0.5,-143.32zm227.98 1029.92c0,0 676.1,-1415.01 -35.65,-2886.29 135.81,-80.18 333.01,-153.96 333.01,-153.96 0,0 894,1655.16 -297.36,3040.25zm837.53 490.01c4.46,-38.55 -26.04,-102.75 -70.32,-168.02 27.33,-62.18 45.06,-116.15 39.56,-139.98 -43.25,10.03 -84.22,21.79 -122.6,34.43 -50.18,-55.5 -102.28,-99.8 -138.64,-112.22 -19.57,31.39 -24.62,98.91 -21.01,175.05 -101.7,46.85 -162.2,88.38 -162.2,88.38 51.75,35.97 116.96,65.11 182.64,86.71 14.93,82 35.16,149.11 52.74,163.24 14.36,-11.9 48.36,-63.97 84.9,-128.59 72.22,12.53 131.53,13.34 154.93,1zm-593.7 28.96c0,0 264.41,170.66 299.13,497.45l165.89 0c0,0 -72.8,-407.34 -465.02,-497.45zm1306.12 -891.56c42.89,-17.28 126.33,-2.58 215.42,27.67 62.79,-51.13 119.22,-88.55 148.37,-89.75 2.16,52.88 1.6,103.71 -0.77,151.8 79.69,40.1 147.09,85.96 172.88,123.82 -29.89,32.46 -105.9,59.6 -194.58,79.57 -21.66,131.76 -50.25,214.45 -50.25,214.45 -57.74,-48.11 -111.86,-113.85 -157.51,-182.51 -98.98,8.81 -182.54,6.77 -204.32,-8.95 9.12,-20.3 58.21,-75.86 120.93,-138.31 -37.26,-79.01 -56.96,-146.94 -50.17,-177.79zm-887.29 -175.2c0,0 799.23,-533.12 826.83,-1529.28 379.81,-6.11 459.4,110.56 459.4,110.56 0,0 -187.18,1148.56 -1286.23,1418.73l0 -0.01zm1074.43 -331.34c0,0 1280.94,-364.99 2411.75,440.11 86.45,-102.34 176.22,-256.98 176.22,-256.98 0,0 -1258.83,-983.82 -2587.97,-183.13zm156.58 1147.89c0,0 736.41,120.5 1075.74,816.27 270.62,-117.61 289.43,-225.67 289.43,-225.67 0,0 -501.09,-752.29 -1365.17,-590.6z"/>
  <path class="fil3" d="M6709.44 4274.94c13.8,-44.14 78.02,-99.38 157.87,-149.16 0.21,-80.98 6.99,-148.35 24.53,-171.67 42.29,31.82 81.27,64.46 116.98,96.75 81.5,-36.26 159.68,-59.37 205.32,-55.34 6.18,43.69 -20.97,119.71 -61.7,200.97 88.25,100.22 134.13,174.73 134.13,174.73 -73.81,14.19 -158.96,14.44 -241.01,6.27 -55.88,82.17 -110.38,145.53 -136.34,152.43 -9.94,-19.92 -21.83,-93.1 -30.43,-181.19 -84.73,-21.21 -149.78,-49 -169.35,-73.79zm-6489.69 -1160.93c31.85,-12.85 93.78,-1.92 159.9,20.54 46.67,-37.97 88.56,-65.75 110.17,-66.64 1.62,39.25 1.19,76.96 -0.55,112.69 59.15,29.76 109.19,63.82 128.34,91.95 -22.2,24.06 -78.64,44.25 -144.45,59.06 -16.07,97.84 -37.3,159.23 -37.3,159.23 -42.85,-35.76 -83.07,-84.54 -116.96,-135.54 -73.45,6.55 -135.5,5.05 -151.68,-6.61 6.75,-15.07 43.2,-56.32 89.79,-102.7 -27.67,-58.67 -42.3,-109.13 -37.26,-131.98zm1751.92 -471.71c60.52,5.57 149.11,72.99 234.9,161.88 104.1,-21.87 192.54,-31.69 227.3,-15.57 -29.31,63.05 -60.52,122.08 -92.25,176.84 68.92,94.78 120.05,188.9 127.36,248.59 -54.42,19.89 -159.51,5.92 -275.06,-24.12 -104.56,140.8 -187.68,220.16 -187.68,220.16 -38.48,-90.9 -62.15,-200.24 -74.14,-307.9 -120.85,-49.23 -217.22,-101.89 -233.19,-133.36 22.84,-18.21 113.61,-53.53 224.43,-88.72 3.99,-114.72 21.88,-205.89 48.33,-237.8zm1589.53 751.15c-41.67,-38.92 -144.15,-58.97 -259.98,-63.63 -49.63,-86.62 -97.91,-154.69 -130.9,-169.02 -25.92,59.91 -47.82,118.59 -66.4,174.97 -109.46,10.8 -207.31,33.68 -253.7,65.82 19.95,50.53 95.37,115.44 188.5,177.73 -33.52,161.1 -37.29,268.88 -37.29,268.88 87.74,-29.73 179.16,-81.37 262.04,-140.08 109.98,54 206.93,88.71 239,80.25 -1.52,-27.36 -33.37,-113.03 -77.82,-212.63 77.93,-74.39 130.65,-143.81 136.55,-182.29zm-1701.82 -3000.59c49.71,-20.05 146.43,-3 249.64,32.08 72.8,-59.31 138.2,-102.7 172.01,-104.05 2.51,61.29 1.84,120.16 -0.87,175.94 92.31,46.52 170.47,99.64 200.35,143.55 -34.65,37.55 -122.75,69.09 -225.5,92.2 -25.15,152.71 -58.29,248.56 -58.29,248.56 -66.92,-55.76 -129.64,-131.95 -182.54,-211.57 -114.69,10.21 -211.57,7.86 -236.87,-10.36 10.61,-23.49 67.5,-87.89 140.24,-160.31 -43.2,-91.59 -66.04,-170.36 -58.17,-206.04zm1901.25 1535.12c44.46,-17.92 130.92,-2.68 223.17,28.66 65.09,-52.97 123.56,-91.77 153.74,-92.99 2.24,54.77 1.68,107.42 -0.79,157.28 82.57,41.59 152.42,89.06 179.13,128.31 -30.97,33.61 -109.71,61.75 -201.6,82.43 -22.43,136.51 -52.04,222.2 -52.04,222.2 -59.82,-49.85 -115.93,-117.95 -163.22,-189.12 -102.55,9.13 -189.1,7.03 -211.7,-9.25 9.46,-21.04 60.32,-78.59 125.31,-143.33 -38.61,-81.86 -59.02,-152.26 -52,-184.19zm1083.86 -1018.94c10.94,-59.74 85.96,-142 182.17,-219.51 -12.54,-105.65 -14.42,-194.6 4.76,-227.76 60.18,34.79 116.17,71.17 167.88,107.62 100.54,-60.21 198.85,-102.73 258.98,-104.71 14.95,55.96 -8.34,159.39 -48.58,271.81 130.96,116.68 202.6,206.57 202.6,206.57 -93.98,30.22 -204.99,44.06 -313.27,46.4 -59.83,115.99 -120.86,207.29 -153.63,220.4 -16.07,-24.37 -43.19,-117.95 -68.36,-231.47 -113.92,-14.19 -203.12,-40.16 -232.55,-69.35zm-234.31 2969.05c31.82,-12.87 93.82,-1.95 159.94,20.52 46.6,-37.97 88.49,-65.76 110.16,-66.66 1.6,39.29 1.17,77.01 -0.57,112.73 59.15,29.76 109.19,63.82 128.34,91.95 -22.2,24.05 -78.61,44.23 -144.45,59.06 -16.09,97.78 -37.32,159.18 -37.32,159.18 -42.86,-35.73 -83.06,-84.49 -116.94,-135.49 -73.46,6.55 -135.5,5.04 -151.7,-6.66 6.79,-15.05 43.24,-56.3 89.8,-102.65 -27.67,-58.67 -42.28,-109.13 -37.26,-131.98zm1317.4 -1045.78c56.31,-22.74 165.95,-3.42 282.92,36.34 82.53,-67.15 156.65,-116.36 194.93,-117.91 2.83,69.45 2.08,136.22 -1.02,199.41 104.67,52.69 193.22,112.95 227.09,162.68 -39.26,42.59 -139.08,78.29 -255.58,104.49 -28.44,173.07 -66,281.71 -66,281.71 -75.84,-63.2 -146.97,-149.55 -206.92,-239.75 -130,11.56 -239.78,8.89 -268.4,-11.77 11.97,-26.62 76.5,-99.62 158.9,-181.66 -49,-103.81 -74.83,-193.06 -65.92,-233.54z"/>
  <path class="fil0" d="M3741.29 5648.7l283.72 0 0 -895.54 329.69 0c22.19,0 34.88,12.68 34.88,34.87l0 744.96c0,80.84 34.86,115.71 115.7,115.71l271.04 0 0 -237.76 -68.16 0c-22.19,0 -34.87,-12.68 -34.87,-34.87l0 -744.95c0,-80.85 -34.86,-115.72 -115.71,-115.72l-919.31 0 0 237.76 103.02 0 0 895.54zm3177.98 -405.77c0,255.2 204.47,424.79 461.24,424.79 256.78,0 461.25,-169.59 461.25,-424.79 0,-256.77 -204.47,-429.54 -462.83,-429.54 -255.19,0 -459.66,172.77 -459.66,429.54zm275.79 0c0,-123.63 85.6,-201.29 185.45,-201.29 99.86,0 185.45,77.66 185.45,201.29 0,122.05 -85.59,196.55 -185.45,196.55 -99.85,0 -185.45,-74.5 -185.45,-196.55zm-1212.54 651.06l274.21 0 0 -226.27c0,-41.21 -3.17,-69.74 -3.17,-69.74l3.17 0c0,0 74.5,69.74 207.64,69.74 217.15,0 380.41,-168.01 380.41,-426.37 0,-253.61 -145.82,-427.96 -367.73,-427.96 -172.77,0 -244.1,104.62 -244.1,104.62l-3.17 0 0 -14.27c0,-34.87 -26.94,-71.33 -106.19,-71.33l-236.17 0 0 229.83 60.23 0c22.19,0 34.87,12.73 34.87,34.87l0 796.88zm266.28 -647.88c0,-141.07 77.67,-201.31 160.09,-201.31 95.1,0 160.09,79.25 160.09,201.31 0,125.21 -74.5,194.95 -160.09,194.95 -107.78,0 -160.09,-96.69 -160.09,-194.95zm-1310.82 402.59l274.21 0 225.08 -366.14c12.68,-22.19 30.11,-47.55 44.38,-80.84l3.17 0c-3.17,31.71 -3.17,63.4 -3.17,82.42l0 248.85c0,80.84 34.87,115.71 115.71,115.71l233 0 0 -229.83 -60.23 0c-22.2,0 -34.88,-12.68 -34.88,-34.87l0 -551.59 -274.21 0 -225.07 367.73c-14.27,23.77 -30.11,47.55 -44.38,80.83l-3.17 0c1.59,-20.6 3.17,-52.3 3.17,-80.83l0 -252.02c0,-80.84 -34.88,-115.71 -115.71,-115.71l-233 0 0 229.83 60.23 0c22.19,0 34.87,12.68 34.87,34.87l0 551.59z"/>
  <path class="fil3" d="M11140.18 5648.7l274.21 0 0 -301.16 38.05 0c20.6,0 45.96,0 60.22,26.95l107.78 212.39c26.95,52.31 58.65,61.82 117.3,61.82l207.63 0 0 -229.83 -58.64 0c-31.7,0 -47.55,-4.76 -60.23,-26.94l-52.31 -90.35c-31.7,-53.89 -76.08,-68.15 -76.08,-68.15l0 -3.18c0,0 30.12,-15.85 60.23,-68.16l194.96 -329.68 -297.98 0 -141.07 258.36c-14.27,25.36 -42.8,26.95 -66.58,26.95l-33.28 0 0 -169.6c0,-80.84 -34.87,-115.71 -115.7,-115.71l-253.61 0 0 229.83 60.23 0c22.19,0 34.87,12.68 34.87,34.87l0 551.59zm-8603.01 1165.36c-253.78,6.6 -469.13,-730.86 -450.43,-998.17 -93.81,149.93 -0.96,906.33 -164.94,1005.28 -188.99,63.09 -330.55,-517.48 -235.03,-1064.58 45.56,-260.93 117.16,-440.17 211.54,-613.14 -521.57,-78.6 -868.24,-716.7 -836.11,-1031.75 -0.62,-70.3 19.83,-97.97 42.7,-103.14 24.63,-5.58 51.45,17.87 65.12,55.07 481.21,991.5 1610.57,892.61 2159.71,117.51 108.49,-153.12 179.1,-55.11 122.19,106 -240.1,679.79 -755.21,826.98 -1037.51,884.21 -202.65,485.3 486.77,1577.59 122.75,1642.7l0.01 0.01zm-589.52 -2419.57c3.06,-31.32 13.76,-60.61 30.67,-86.33 16.97,-25.57 40.18,-47.7 68.2,-65.3 28.01,-17.36 60.82,-31.14 96.49,-37.55 35.66,-6.69 74.33,-7.83 113.88,-2.04 39.42,6.46 76,19.01 108.05,36.07 32.01,17.15 59.35,39.82 80.82,64.81 43.1,50.07 61.92,112.75 48.86,174.46 -13.08,61.63 -54.75,110.78 -110.25,142.46 -27.78,15.84 -58.91,26.45 -92.2,32.52 -33.31,6.17 -68.61,6.79 -104.62,0.88 -36.1,-5.24 -69.55,-16.31 -99.5,-32.15 -29.9,-16.1 -56.39,-35.27 -78.14,-58.77 -21.71,-23.25 -38.74,-49.93 -49.65,-78.62 -10.89,-28.54 -15.65,-59.05 -12.61,-90.44zm6070.03 1254.21l283.72 0 0 -895.54 329.69 0c22.19,0 34.87,12.68 34.87,34.87l0 744.96c0,80.84 34.87,115.71 115.71,115.71l271.04 0 0 -237.76 -68.16 0c-22.19,0 -34.87,-12.68 -34.87,-34.87l0 -744.95c0,-80.85 -34.87,-115.72 -115.7,-115.72l-919.32 0 0 237.76 103.02 0 0 895.54zm1104.77 -228.24c0,147.4 114.13,247.26 267.87,247.26 168.01,0 237.75,-118.87 237.75,-118.87l3.18 0 0 14.26c0,36.46 28.52,85.59 107.78,85.59l237.75 0 0 -229.83 -60.23 0c-22.19,0 -34.87,-12.68 -34.87,-34.87l0 -237.76c0,-193.37 -93.51,-332.85 -388.33,-332.85 -84,0 -315.42,11.09 -315.42,191.79l0 90.34 253.6 0 0 -36.45c0,-31.7 36.46,-39.63 71.33,-39.63 68.16,0 104.61,28.53 104.61,106.2l0 14.26 -11.1 0c-125.22,0 -473.92,22.19 -473.92,280.56zm271.04 -28.53c0,-68.16 99.86,-95.11 187.03,-95.11l30.12 0 0 22.19c0,66.58 -61.82,144.24 -139.49,144.24 -50.71,0 -77.66,-34.87 -77.66,-71.32zm722.78 503.5l274.21 0 0 -227.71c0,-41.21 -3.18,-69.74 -3.18,-69.74l3.18 0c0,0 74.49,69.74 207.63,69.74 217.15,0 380.41,-168.01 380.41,-426.37 0,-253.61 -145.82,-427.96 -367.73,-427.96 -172.77,0 -244.09,104.62 -244.09,104.62l-3.17 0 0 -14.27c0,-34.87 -26.95,-71.33 -106.2,-71.33l-236.17 0 0 229.83 60.23 0c22.2,0 34.88,12.68 34.88,34.87l0 798.32zm266.28 -649.32c0,-141.07 77.66,-201.31 160.09,-201.31 95.1,0 160.08,79.25 160.08,201.31 0,125.21 -74.49,194.95 -160.08,194.95 -107.78,0 -160.09,-96.69 -160.09,-194.95z"/>
  <path class="fil2" d="M1201.24 4913.35c-1.04,-3.89 -2.06,-7.58 -2.97,-10.92 0.91,3.34 1.93,7.05 2.97,10.92z"/>
  <path class="fil0" d="M3511.52 4458.38c0,0 -111.51,817.15 -918.46,1293.19 24.37,70.96 53.91,152.15 85.94,229.99 295.08,-178.88 846.99,-633.17 832.52,-1523.17l0 -0.01z"/>
 </g>
</svg>

