<?xml version="1.0" standalone="no"?>
<!DOCTYPE svg PUBLIC "-//W3C//DTD SVG 20010904//EN"
 "http://www.w3.org/TR/2001/REC-SVG-20010904/DTD/svg10.dtd">
<svg version="1.0" xmlns="http://www.w3.org/2000/svg"
 width="320.000000pt" height="320.000000pt" viewBox="0 0 320.000000 320.000000"
 preserveAspectRatio="xMidYMid meet">
<metadata>
Created by potrace 1.16, written by Peter Selinger 2001-2019
</metadata>
<g transform="translate(0.000000,320.000000) scale(0.100000,-0.100000)"
fill="#000000" stroke="none">
<path d="M2292 2339 c-13 -5 -28 -6 -33 -3 -5 3 -8 2 -7 -3 2 -4 -13 -24 -33
-43 -102 -101 -118 -298 -36 -459 31 -62 116 -141 151 -141 12 0 16 -11 16
-42 0 -24 5 -50 10 -58 9 -13 13 -12 30 9 11 13 20 18 20 12 0 -6 7 -11 15
-11 11 0 15 -11 15 -40 0 -22 -4 -40 -10 -40 -5 0 -9 -3 -9 -7 3 -21 -3 -32
-26 -47 -24 -16 -26 -15 -61 23 -19 22 -44 43 -55 46 -11 4 -17 10 -15 14 3 4
-30 6 -72 4 -96 -4 -112 -6 -107 -14 4 -6 -39 -30 -63 -35 -18 -3 -23 -9 -26
-27 -1 -8 -9 -25 -17 -38 -8 -13 -21 -39 -29 -57 -8 -21 -16 -29 -20 -22 -4 6
-7 -1 -7 -17 0 -15 -8 -66 -18 -113 -23 -107 -16 -237 16 -306 12 -25 28 -48
35 -51 8 -3 12 -8 9 -12 -2 -4 13 -5 33 -2 32 5 40 13 59 51 13 25 28 72 35
105 6 33 15 63 20 66 5 3 8 12 6 20 -2 10 14 15 60 20 34 3 74 12 87 19 20 11
29 10 57 -3 18 -8 40 -17 48 -19 11 -2 17 -23 23 -73 4 -38 8 -78 9 -87 1 -9
7 -14 12 -11 5 4 7 0 4 -9 -4 -8 -1 -15 5 -16 7 -1 26 -4 42 -8 23 -4 35 -1
49 15 18 20 20 20 32 3 12 -16 13 -16 8 3 -3 14 2 23 18 30 16 7 24 20 26 43
4 43 14 40 36 -10 10 -24 29 -57 42 -75 17 -22 20 -33 11 -37 -8 -3 -7 -5 3
-4 8 1 28 -2 43 -7 35 -9 77 8 77 32 0 14 2 15 9 4 13 -20 2 76 -14 127 -8 24
-28 66 -45 93 -31 51 -38 75 -18 63 6 -4 8 -3 4 4 -7 12 33 44 45 36 4 -2 11
1 15 7 5 8 3 9 -6 4 -8 -5 -11 -3 -8 6 3 8 12 13 21 13 10 -1 13 4 10 14 -5
11 -3 13 7 7 8 -5 11 -4 7 1 -8 13 9 39 25 39 7 0 12 8 10 18 -2 9 2 18 8 18
5 1 14 2 19 3 5 0 13 5 18 10 4 5 3 6 -4 2 -18 -10 -24 9 -8 30 8 10 15 38 15
60 0 39 -3 43 -40 62 -26 12 -36 15 -29 6 7 -8 7 -14 2 -14 -6 0 -27 -11 -47
-25 -21 -14 -42 -22 -48 -19 -6 4 -8 3 -5 -3 7 -12 -68 -105 -77 -95 -4 3 -5
0 -2 -8 3 -8 -3 -26 -14 -40 l-19 -25 10 40 c6 22 16 45 22 50 7 6 13 24 15
40 1 17 4 51 6 77 3 26 2 47 -2 46 -4 -1 -15 2 -25 7 -20 8 -109 -13 -102 -25
2 -4 -4 -15 -14 -24 -15 -14 -20 -14 -25 -4 -4 9 -5 9 -3 -2 2 -20 -34 -79
-47 -76 -6 2 -8 1 -5 -1 4 -2 -7 -36 -23 -76 -16 -40 -34 -94 -39 -122 -20
-102 -16 -95 -50 -85 -38 11 -43 15 -34 30 5 8 11 8 21 -1 10 -8 14 -8 14 0 0
6 -4 11 -9 11 -5 0 -1 18 10 40 19 40 42 193 27 184 -21 -13 -5 16 17 30 37
24 55 57 65 121 11 65 14 72 32 58 7 -6 23 -13 36 -16 26 -6 25 2 -8 76 l-19
41 25 23 c13 12 24 26 24 31 0 4 8 17 18 28 22 23 21 18 28 154 6 109 5 113
-49 240 -5 14 -9 29 -8 33 1 5 -3 6 -8 3 -10 -6 -26 22 -22 39 2 5 -1 7 -5 2
-4 -4 -19 4 -33 17 -47 46 -136 67 -189 45z m138 -34 c43 -22 107 -101 132
-164 18 -45 22 -76 23 -161 0 -95 -3 -110 -28 -163 -16 -31 -39 -65 -52 -75
l-23 -17 25 -43 c30 -51 24 -64 -12 -28 -32 32 -33 32 -28 4 2 -13 -1 -30 -7
-38 -9 -13 -14 -11 -33 13 l-23 28 -15 -28 -14 -28 -3 47 c-3 43 -6 48 -36 58
-77 25 -155 138 -177 256 -44 235 107 424 271 339z m248 -790 c1 -16 -11 -70
-28 -119 -18 -55 -26 -94 -21 -99 13 -13 28 -1 58 46 81 129 202 208 219 142
10 -40 -39 -126 -122 -214 l-74 -79 45 -88 c66 -127 65 -214 -2 -214 -45 0
-102 83 -133 194 -17 60 -36 82 -45 52 -3 -9 -7 -23 -10 -31 -4 -14 -8 -14
-32 -2 -16 8 -50 18 -77 21 l-48 8 7 46 c28 187 146 377 230 370 25 -3 30 -8
33 -33z m-420 9 c41 -17 92 -61 92 -80 0 -6 -17 -19 -37 -27 -36 -15 -39 -14
-54 5 -23 30 -63 17 -95 -31 -36 -55 -42 -110 -15 -135 18 -16 25 -17 46 -8
30 14 63 64 71 109 5 27 13 34 49 47 24 8 46 12 49 8 3 -3 6 -29 6 -57 0 -58
-21 -129 -48 -158 -25 -29 -91 -56 -155 -63 -31 -4 -61 -12 -66 -18 -5 -6 -16
-46 -25 -89 -29 -141 -63 -182 -112 -136 -75 70 -72 337 6 496 63 127 180 183
288 137z m278 -439 l23 -15 -22 -61 c-12 -34 -32 -68 -43 -76 -20 -12 -25 -12
-48 9 -20 17 -29 39 -37 86 -15 86 -12 91 51 81 29 -4 63 -15 76 -24z"/>
<path d="M915 2331 c-11 -5 -24 -6 -30 -3 -5 3 -7 2 -3 -2 3 -4 -4 -31 -17
-59 -24 -56 -45 -184 -45 -280 0 -33 -2 -58 -5 -55 -5 5 -51 185 -59 228 -1 8
-12 34 -24 56 -11 23 -19 44 -17 48 3 3 2 4 -2 1 -3 -3 -14 2 -24 11 -24 21
-64 11 -85 -21 -23 -36 -43 -119 -49 -215 -3 -47 -9 -101 -12 -120 -5 -34 -5
-35 -15 -10 -5 14 -10 50 -11 82 -1 31 -5 54 -8 52 -4 -2 -12 18 -19 44 -23
92 -65 145 -109 140 -99 -12 -110 -325 -19 -517 12 -25 22 -51 21 -58 0 -7 2
-11 6 -10 7 2 57 -46 54 -53 -2 -6 4 -7 85 -16 42 -5 60 -2 94 16 24 12 48 30
55 40 13 19 29 20 91 5 24 -6 30 -10 20 -16 -10 -7 -9 -9 4 -9 9 0 20 5 23 10
3 6 14 10 23 10 10 0 34 9 55 19 20 10 37 15 37 10 0 -5 4 -9 9 -9 5 0 7 10 4
23 -4 18 -3 19 7 7 10 -13 11 -13 8 0 -1 8 12 37 29 63 25 38 32 45 37 30 3
-10 4 -5 2 11 -2 15 3 51 11 80 17 64 19 248 3 318 -7 29 -21 69 -31 89 -10
20 -15 40 -11 44 4 5 2 5 -4 2 -7 -4 -17 0 -24 8 -14 17 -25 18 -55 6z m60
-35 c30 -31 54 -110 61 -211 17 -214 -64 -402 -185 -435 -36 -10 -51 -9 -85 4
-57 22 -63 21 -107 -18 -168 -152 -339 39 -339 378 0 133 21 196 64 196 48 0
88 -85 116 -248 13 -71 32 -104 50 -86 4 5 13 66 20 136 10 123 31 220 52 246
18 21 55 14 76 -15 28 -42 48 -98 71 -208 37 -169 65 -163 73 15 8 160 46 270
94 270 8 0 26 -11 39 -24z"/>
<path d="M1365 2271 c-16 -4 -40 -13 -51 -19 -12 -6 -25 -8 -29 -4 -5 4 -5 1
-1 -5 4 -7 2 -14 -3 -14 -6 -1 -17 -2 -23 -3 -7 0 -13 -5 -13 -11 -1 -20 -26
-55 -37 -52 -7 1 -13 -2 -13 -8 -1 -5 -12 -34 -25 -63 -17 -39 -26 -50 -32
-40 -7 10 -8 8 -4 -4 3 -10 -4 -53 -15 -95 -33 -133 -23 -301 20 -327 6 -4 9
-10 7 -14 -2 -4 16 -8 40 -8 24 -1 42 1 41 5 -4 13 41 62 46 49 2 -7 4 -2 5
12 0 14 11 68 24 120 19 71 29 96 43 98 12 3 15 0 10 -9 -6 -8 -4 -10 5 -4 10
6 12 -4 6 -54 -7 -63 6 -157 27 -196 6 -11 11 -23 10 -26 -2 -6 4 -8 64 -14
24 -2 42 -1 42 3 -3 19 2 33 10 28 4 -3 16 3 25 13 10 11 13 22 8 25 -5 3 2
37 15 76 43 127 46 335 8 427 -9 21 -15 40 -15 42 1 2 -5 8 -14 13 -9 5 -14
14 -10 19 3 5 0 8 -8 7 -7 -2 -12 3 -10 10 1 6 -1 11 -5 11 -18 -3 -34 2 -30
9 6 9 -80 12 -118 3z m133 -38 c71 -53 102 -177 84 -341 -26 -234 -114 -359
-177 -252 -16 28 -20 54 -22 138 -1 102 -10 132 -39 132 -21 0 -40 -39 -58
-117 -35 -162 -100 -219 -150 -133 -17 29 -21 51 -20 130 2 263 146 481 307
467 27 -2 61 -13 75 -24z"/>
<path d="M1382 2140 c-46 -28 -73 -76 -70 -125 3 -35 6 -40 29 -43 48 -6 119
76 119 137 0 19 -24 51 -38 51 -4 0 -22 -9 -40 -20z"/>
<path d="M1835 2184 c-22 -9 -48 -16 -57 -17 -9 -1 -15 -4 -12 -8 6 -11 -22
-30 -32 -21 -5 4 -6 3 -2 -1 3 -5 -5 -25 -18 -44 -13 -20 -30 -54 -36 -77 -17
-55 -14 -216 5 -295 9 -36 13 -69 10 -75 -3 -6 -2 -8 2 -3 10 8 46 -63 39 -75
-3 -5 0 -8 6 -8 6 0 8 -5 4 -12 -4 -7 -3 -8 4 -4 11 6 16 -6 13 -27 0 -4 5 -6
11 -5 7 2 12 -3 10 -9 -1 -7 5 -13 13 -13 9 0 18 -7 21 -15 4 -10 21 -15 54
-15 l49 0 6 44 c4 25 2 82 -4 127 -16 116 -16 114 26 127 20 6 41 8 46 5 6 -3
7 -1 3 5 -4 7 -2 12 4 12 22 0 86 77 98 117 23 77 5 175 -43 234 -46 57 -149
82 -220 53z m153 -25 c25 -12 54 -37 68 -59 28 -42 41 -124 30 -185 -10 -50
-66 -109 -131 -136 -30 -12 -56 -28 -59 -35 -3 -7 -1 -41 4 -76 5 -34 10 -87
10 -115 0 -45 -3 -55 -26 -69 -24 -16 -27 -16 -52 3 -43 31 -90 108 -119 196
-23 69 -27 100 -27 197 -1 104 2 120 25 171 54 114 170 159 277 108z"/>
<path d="M1885 2066 c-35 -52 -31 -157 6 -177 65 -34 116 120 61 184 -21 24
-49 21 -67 -7z"/>
<path d="M883 1547 c-18 -7 -41 -20 -52 -29 -11 -9 -22 -13 -26 -10 -4 4 -5 3
-4 -3 2 -5 -7 -37 -20 -70 -18 -48 -24 -87 -28 -191 -6 -145 10 -251 48 -313
13 -22 17 -36 10 -40 -6 -4 9 -8 33 -9 49 -2 66 11 91 72 19 44 51 195 61 281
8 68 19 95 38 95 22 0 26 -24 26 -139 0 -122 13 -209 40 -262 11 -20 17 -38
15 -40 -2 -2 11 -5 28 -6 42 -3 72 18 102 75 14 26 23 36 20 22 -5 -21 -4 -22
5 -7 6 9 8 22 5 27 -3 5 1 33 10 62 26 85 31 260 10 338 -9 36 -17 70 -18 77
0 7 -5 9 -10 6 -6 -4 -8 0 -4 9 4 11 -1 18 -15 21 -16 5 -19 11 -15 29 6 22 5
22 -8 4 -12 -16 -15 -16 -20 -4 -8 19 -273 24 -322 5z m299 -16 c74 -28 111
-120 110 -274 -2 -219 -90 -407 -161 -343 -29 26 -43 91 -55 261 l-11 160 -26
3 c-14 2 -31 -3 -36 -10 -6 -7 -23 -82 -37 -167 -26 -157 -60 -255 -91 -267
-10 -4 -26 3 -40 16 -78 73 -96 393 -30 537 26 58 53 79 116 93 52 11 224 5
261 -9z"/>
<path d="M1589 1452 c-30 -8 -62 -15 -71 -15 -9 -1 -16 -6 -15 -11 1 -5 -8
-15 -21 -21 -13 -7 -24 -16 -25 -21 -1 -5 -6 -8 -10 -6 -5 1 -6 -2 -3 -7 4 -5
-2 -14 -11 -20 -10 -5 -16 -11 -14 -13 7 -5 -31 -88 -38 -83 -3 1 -7 -7 -7
-18 -1 -12 -9 -58 -19 -102 -19 -90 -15 -222 9 -290 19 -54 68 -97 98 -86 13
4 30 6 38 4 11 -3 12 -2 2 4 -10 7 -8 14 8 28 11 10 20 25 20 34 0 14 2 14 11
1 8 -12 9 -10 4 7 -6 21 10 143 23 173 3 8 6 21 6 29 1 8 7 16 15 19 8 3 11 0
7 -7 -4 -6 -3 -11 1 -11 5 0 18 -41 28 -91 23 -108 60 -162 110 -161 49 1 64
5 59 13 -2 5 0 16 5 26 35 61 40 95 39 253 -1 91 -6 160 -11 160 -5 0 -7 9 -4
20 3 10 -1 24 -8 30 -8 6 -17 24 -20 40 -3 16 -13 34 -21 40 -7 7 -11 17 -7
24 3 6 2 8 -2 3 -5 -4 -18 2 -30 13 -12 11 -38 29 -57 39 -33 16 -40 16 -89 3z
m94 -26 c101 -42 165 -250 139 -452 -18 -135 -54 -190 -107 -166 -32 15 -59
73 -80 173 -17 79 -32 103 -57 94 -22 -9 -27 -26 -39 -116 -12 -100 -30 -149
-61 -172 -59 -44 -109 39 -116 193 -13 294 148 519 321 446z"/>
<path d="M1592 1324 c-12 -8 -31 -33 -42 -54 -37 -72 -19 -139 33 -126 56 14
108 143 72 179 -21 21 -34 21 -63 1z"/>
</g>
</svg>
